<svg width="761" height="201" viewBox="0 0 761 201" fill="none" xmlns="http://www.w3.org/2000/svg">
<path d="M601.766 116.327C593.482 101.979 598.398 83.631 612.747 75.3467L671.176 41.613C685.524 33.3287 703.872 38.245 712.156 52.5938L745.89 111.022C754.174 125.371 749.258 143.719 734.909 152.003L676.481 185.737C662.132 194.021 643.784 189.105 635.5 174.756L601.766 116.327Z" fill="#EC5863"/>
<rect y="142.807" width="65.7521" height="65.7521" rx="16" transform="rotate(-30 0 142.807)" fill="#EC5863"/>
<path d="M330.024 17.3296C346.028 21.6179 355.525 38.068 351.237 54.072L341.672 89.7691C337.384 105.773 320.934 115.271 304.93 110.982L269.233 101.417C253.229 97.129 243.731 80.6789 248.019 64.6749L257.584 28.9778C261.873 12.9738 278.323 3.47633 294.327 7.76458L330.024 17.3296Z" fill="#EC5863"/>
<g filter="url(#filter0_d_65_22)">
<rect x="31" y="50.9308" width="654" height="117" rx="16" fill="white"/>
</g>
<path d="M283.076 112.931C282.86 112.931 282.68 112.859 282.536 112.715C282.392 112.547 282.32 112.355 282.32 112.139C282.32 112.019 282.344 111.911 282.392 111.815L290.708 93.1668H279.944C279.68 93.1668 279.452 93.0828 279.26 92.9148C279.092 92.7228 279.008 92.4948 279.008 92.2308V88.6308C279.008 88.3668 279.092 88.1508 279.26 87.9828C279.452 87.8148 279.68 87.7308 279.944 87.7308H296.756C297.044 87.7308 297.272 87.8148 297.44 87.9828C297.608 88.1508 297.692 88.3668 297.692 88.6308V91.8348C297.692 92.3388 297.56 92.8788 297.296 93.4548L288.98 112.067C288.716 112.643 288.296 112.931 287.72 112.931H283.076ZM315.845 113.291C313.541 113.291 311.597 112.943 310.013 112.247C308.429 111.551 307.241 110.603 306.449 109.403C305.681 108.203 305.297 106.859 305.297 105.371C305.297 104.099 305.609 102.959 306.233 101.951C306.881 100.919 307.733 100.115 308.789 99.5388C307.949 98.9868 307.301 98.2908 306.845 97.4508C306.413 96.6108 306.197 95.6508 306.197 94.5708C306.197 93.2028 306.545 91.9788 307.241 90.8988C307.961 89.7948 309.041 88.9308 310.481 88.3068C311.921 87.6828 313.709 87.3708 315.845 87.3708C318.989 87.3708 321.365 88.0308 322.973 89.3508C324.605 90.6708 325.421 92.3988 325.421 94.5348C325.421 96.7188 324.581 98.3868 322.901 99.5388C323.981 100.067 324.833 100.847 325.457 101.879C326.105 102.911 326.429 104.087 326.429 105.407C326.429 106.895 326.033 108.239 325.241 109.439C324.449 110.615 323.249 111.551 321.641 112.247C320.057 112.943 318.125 113.291 315.845 113.291ZM315.845 97.7388C316.901 97.7148 317.765 97.4388 318.437 96.9108C319.109 96.3828 319.445 95.6988 319.445 94.8588C319.445 93.9948 319.109 93.2988 318.437 92.7708C317.765 92.2428 316.901 91.9788 315.845 91.9788C314.789 91.9788 313.925 92.2428 313.253 92.7708C312.581 93.2988 312.245 93.9948 312.245 94.8588C312.245 95.7228 312.581 96.4188 313.253 96.9468C313.925 97.4748 314.789 97.7388 315.845 97.7388ZM315.845 108.683C317.021 108.683 317.993 108.383 318.761 107.783C319.529 107.183 319.913 106.379 319.913 105.371C319.913 104.363 319.529 103.571 318.761 102.995C317.993 102.395 317.021 102.095 315.845 102.095C314.669 102.095 313.685 102.395 312.893 102.995C312.125 103.571 311.741 104.363 311.741 105.371C311.741 106.379 312.125 107.183 312.893 107.783C313.685 108.383 314.669 108.683 315.845 108.683Z" fill="#EC5863"/>
<path d="M258.221 137.041C257.173 137.041 256.351 136.788 255.757 136.282C255.171 135.768 254.859 135.028 254.822 134.06C254.815 133.862 254.811 133.539 254.811 133.092C254.811 132.637 254.815 132.307 254.822 132.102C254.859 131.148 255.178 130.415 255.779 129.902C256.381 129.381 257.195 129.121 258.221 129.121C258.867 129.121 259.446 129.231 259.959 129.451C260.473 129.663 260.876 129.971 261.169 130.375C261.47 130.771 261.624 131.236 261.631 131.772V131.794C261.631 131.852 261.606 131.904 261.554 131.948C261.51 131.984 261.459 132.003 261.4 132.003H259.915C259.82 132.003 259.747 131.984 259.695 131.948C259.644 131.904 259.6 131.827 259.563 131.717C259.461 131.343 259.299 131.082 259.079 130.936C258.859 130.782 258.57 130.705 258.21 130.705C257.345 130.705 256.898 131.189 256.868 132.157C256.861 132.355 256.857 132.659 256.857 133.07C256.857 133.48 256.861 133.792 256.868 134.005C256.898 134.973 257.345 135.457 258.21 135.457C258.57 135.457 258.863 135.38 259.09 135.226C259.318 135.064 259.475 134.804 259.563 134.445C259.593 134.335 259.633 134.261 259.684 134.225C259.736 134.181 259.813 134.159 259.915 134.159H261.4C261.466 134.159 261.521 134.181 261.565 134.225C261.617 134.269 261.639 134.324 261.631 134.39C261.624 134.925 261.47 135.394 261.169 135.798C260.876 136.194 260.473 136.502 259.959 136.722C259.446 136.934 258.867 137.041 258.221 137.041ZM270.004 137.041C268.97 137.041 268.156 136.788 267.562 136.282C266.968 135.776 266.653 135.031 266.616 134.049C266.609 133.836 266.605 133.521 266.605 133.103C266.605 132.677 266.609 132.358 266.616 132.146C266.653 131.178 266.972 130.433 267.573 129.913C268.182 129.385 268.992 129.121 270.004 129.121C271.016 129.121 271.826 129.385 272.435 129.913C273.044 130.433 273.363 131.178 273.392 132.146C273.407 132.571 273.414 132.89 273.414 133.103C273.414 133.308 273.407 133.623 273.392 134.049C273.355 135.031 273.04 135.776 272.446 136.282C271.852 136.788 271.038 137.041 270.004 137.041ZM270.004 135.457C270.407 135.457 270.726 135.336 270.961 135.094C271.203 134.852 271.331 134.481 271.346 133.983C271.361 133.557 271.368 133.257 271.368 133.081C271.368 132.89 271.361 132.589 271.346 132.179C271.331 131.68 271.203 131.31 270.961 131.068C270.719 130.826 270.4 130.705 270.004 130.705C269.608 130.705 269.289 130.826 269.047 131.068C268.812 131.31 268.684 131.68 268.662 132.179C268.655 132.384 268.651 132.685 268.651 133.081C268.651 133.469 268.655 133.77 268.662 133.983C268.684 134.481 268.812 134.852 269.047 135.094C269.282 135.336 269.601 135.457 270.004 135.457ZM281.993 137.041C280.959 137.041 280.149 136.788 279.562 136.282C278.983 135.776 278.693 135.013 278.693 133.994V129.506C278.693 129.425 278.719 129.359 278.77 129.308C278.829 129.256 278.895 129.231 278.968 129.231H280.387C280.468 129.231 280.534 129.256 280.585 129.308C280.644 129.359 280.673 129.425 280.673 129.506V133.983C280.673 134.459 280.783 134.819 281.003 135.061C281.23 135.295 281.557 135.413 281.982 135.413C282.4 135.413 282.723 135.292 282.95 135.05C283.177 134.808 283.291 134.452 283.291 133.983V129.506C283.291 129.425 283.317 129.359 283.368 129.308C283.427 129.256 283.493 129.231 283.566 129.231H284.996C285.077 129.231 285.143 129.256 285.194 129.308C285.245 129.359 285.271 129.425 285.271 129.506V133.994C285.271 135.013 284.978 135.776 284.391 136.282C283.812 136.788 283.012 137.041 281.993 137.041ZM291.075 136.931C291.001 136.931 290.935 136.905 290.877 136.854C290.825 136.795 290.8 136.729 290.8 136.656V129.506C290.8 129.425 290.825 129.359 290.877 129.308C290.935 129.256 291.001 129.231 291.075 129.231H292.241C292.424 129.231 292.549 129.3 292.615 129.44L295.299 133.664V129.506C295.299 129.425 295.324 129.359 295.376 129.308C295.434 129.256 295.5 129.231 295.574 129.231H296.894C296.974 129.231 297.04 129.256 297.092 129.308C297.143 129.359 297.169 129.425 297.169 129.506V136.645C297.169 136.725 297.143 136.795 297.092 136.854C297.04 136.905 296.974 136.931 296.894 136.931H295.717C295.555 136.931 295.434 136.861 295.354 136.722L292.67 132.652V136.656C292.67 136.729 292.644 136.795 292.593 136.854C292.541 136.905 292.475 136.931 292.395 136.931H291.075ZM304.745 136.931C304.672 136.931 304.606 136.905 304.547 136.854C304.496 136.795 304.47 136.729 304.47 136.656V130.958H302.512C302.439 130.958 302.373 130.932 302.314 130.881C302.263 130.822 302.237 130.756 302.237 130.683V129.506C302.237 129.425 302.263 129.359 302.314 129.308C302.373 129.256 302.439 129.231 302.512 129.231H308.43C308.511 129.231 308.577 129.256 308.628 129.308C308.679 129.359 308.705 129.425 308.705 129.506V130.683C308.705 130.763 308.679 130.829 308.628 130.881C308.577 130.932 308.511 130.958 308.43 130.958H306.472V136.656C306.472 136.729 306.446 136.795 306.395 136.854C306.344 136.905 306.278 136.931 306.197 136.931H304.745ZM314.05 136.931C313.976 136.931 313.91 136.905 313.852 136.854C313.8 136.795 313.775 136.729 313.775 136.656V129.506C313.775 129.425 313.8 129.359 313.852 129.308C313.91 129.256 313.976 129.231 314.05 129.231H317.042C318.002 129.231 318.75 129.451 319.286 129.891C319.828 130.323 320.1 130.939 320.1 131.739C320.1 132.252 319.979 132.688 319.737 133.048C319.495 133.407 319.161 133.682 318.736 133.873L320.243 136.579C320.265 136.623 320.276 136.663 320.276 136.7C320.276 136.758 320.25 136.813 320.199 136.865C320.155 136.909 320.103 136.931 320.045 136.931H318.582C318.369 136.931 318.219 136.832 318.131 136.634L316.877 134.214H315.755V136.656C315.755 136.736 315.725 136.802 315.667 136.854C315.615 136.905 315.549 136.931 315.469 136.931H314.05ZM317.02 132.652C317.357 132.652 317.614 132.571 317.79 132.41C317.966 132.241 318.054 132.01 318.054 131.717C318.054 131.423 317.966 131.192 317.79 131.024C317.621 130.848 317.364 130.76 317.02 130.76H315.755V132.652H317.02ZM325.725 136.931C325.652 136.931 325.586 136.905 325.527 136.854C325.476 136.795 325.45 136.729 325.45 136.656V129.506C325.45 129.425 325.476 129.359 325.527 129.308C325.586 129.256 325.652 129.231 325.725 129.231H327.199C327.28 129.231 327.346 129.256 327.397 129.308C327.456 129.359 327.485 129.425 327.485 129.506V136.656C327.485 136.736 327.456 136.802 327.397 136.854C327.346 136.905 327.28 136.931 327.199 136.931H325.725ZM333.361 136.931C333.288 136.931 333.222 136.905 333.163 136.854C333.112 136.795 333.086 136.729 333.086 136.656V129.506C333.086 129.425 333.112 129.359 333.163 129.308C333.222 129.256 333.288 129.231 333.361 129.231H338.498C338.579 129.231 338.645 129.256 338.696 129.308C338.748 129.359 338.773 129.425 338.773 129.506V130.54C338.773 130.613 338.748 130.679 338.696 130.738C338.645 130.789 338.579 130.815 338.498 130.815H334.989V132.3H338.256C338.337 132.3 338.403 132.329 338.454 132.388C338.506 132.439 338.531 132.505 338.531 132.586V133.543C338.531 133.616 338.506 133.682 338.454 133.741C338.403 133.792 338.337 133.818 338.256 133.818H334.989V135.347H338.586C338.667 135.347 338.733 135.372 338.784 135.424C338.836 135.475 338.861 135.541 338.861 135.622V136.656C338.861 136.729 338.836 136.795 338.784 136.854C338.733 136.905 338.667 136.931 338.586 136.931H333.361ZM347.053 137.041C346.356 137.041 345.759 136.938 345.26 136.733C344.761 136.527 344.384 136.26 344.127 135.93C343.878 135.592 343.746 135.226 343.731 134.83C343.731 134.771 343.753 134.72 343.797 134.676C343.848 134.624 343.907 134.599 343.973 134.599H345.359C345.447 134.599 345.517 134.617 345.568 134.654C345.627 134.683 345.685 134.731 345.744 134.797C345.839 134.987 345.993 135.145 346.206 135.27C346.419 135.394 346.701 135.457 347.053 135.457C347.471 135.457 347.79 135.391 348.01 135.259C348.23 135.127 348.34 134.947 348.34 134.72C348.34 134.558 348.281 134.426 348.164 134.324C348.054 134.221 347.878 134.129 347.636 134.049C347.394 133.968 347.035 133.876 346.558 133.774C345.678 133.59 345.018 133.323 344.578 132.971C344.145 132.611 343.929 132.102 343.929 131.442C343.929 130.994 344.054 130.595 344.303 130.243C344.552 129.891 344.908 129.616 345.37 129.418C345.832 129.22 346.371 129.121 346.987 129.121C347.625 129.121 348.179 129.231 348.648 129.451C349.117 129.671 349.473 129.949 349.715 130.287C349.964 130.617 350.096 130.943 350.111 131.266C350.111 131.332 350.089 131.387 350.045 131.431C350.001 131.475 349.946 131.497 349.88 131.497H348.428C348.34 131.497 348.267 131.482 348.208 131.453C348.157 131.423 348.109 131.376 348.065 131.31C348.021 131.141 347.9 130.998 347.702 130.881C347.511 130.763 347.273 130.705 346.987 130.705C346.657 130.705 346.404 130.763 346.228 130.881C346.052 130.998 345.964 131.17 345.964 131.398C345.964 131.552 346.012 131.68 346.107 131.783C346.21 131.885 346.371 131.981 346.591 132.069C346.818 132.149 347.141 132.234 347.559 132.322C348.241 132.446 348.784 132.604 349.187 132.795C349.598 132.978 349.898 133.22 350.089 133.521C350.28 133.814 350.375 134.184 350.375 134.632C350.375 135.123 350.232 135.552 349.946 135.919C349.667 136.278 349.275 136.557 348.769 136.755C348.27 136.945 347.698 137.041 347.053 137.041Z" fill="black"/>
<path d="M114.697 112.931C114.433 112.931 114.205 112.847 114.013 112.679C113.845 112.511 113.761 112.295 113.761 112.031V109.475C113.761 108.755 114.061 108.167 114.661 107.711L118.405 104.039C120.589 102.359 122.245 101.051 123.373 100.115C124.501 99.1788 125.353 98.3268 125.929 97.5588C126.505 96.7908 126.793 96.0588 126.793 95.3628C126.793 93.4668 125.857 92.5188 123.985 92.5188C123.001 92.5188 122.245 92.8188 121.717 93.4188C121.189 93.9948 120.841 94.7268 120.673 95.6148C120.529 96.1668 120.121 96.4428 119.449 96.4428H114.949C114.733 96.4428 114.553 96.3708 114.409 96.2268C114.265 96.0828 114.193 95.9028 114.193 95.6868C114.241 94.1508 114.661 92.7468 115.453 91.4748C116.269 90.1788 117.409 89.1588 118.873 88.4148C120.361 87.6468 122.065 87.2628 123.985 87.2628C126.001 87.2628 127.729 87.5868 129.169 88.2348C130.609 88.8828 131.701 89.7948 132.445 90.9708C133.189 92.1468 133.561 93.5148 133.561 95.0748C133.561 96.7548 133.033 98.2908 131.977 99.6828C130.945 101.051 129.361 102.539 127.225 104.147L123.913 107.495H133.165C133.429 107.495 133.645 107.579 133.813 107.747C134.005 107.915 134.101 108.131 134.101 108.395V112.031C134.101 112.295 134.005 112.511 133.813 112.679C133.645 112.847 133.429 112.931 133.165 112.931H114.697ZM143.763 112.931C143.499 112.931 143.283 112.847 143.115 112.679C142.947 112.511 142.863 112.295 142.863 112.031V95.1108C142.863 94.8468 142.947 94.6308 143.115 94.4628C143.283 94.2948 143.499 94.2108 143.763 94.2108H147.687C147.951 94.2108 148.167 94.2948 148.335 94.4628C148.503 94.6308 148.587 94.8468 148.587 95.1108V96.3348C149.139 95.6148 149.871 95.0268 150.783 94.5708C151.719 94.0908 152.763 93.8508 153.915 93.8508C156.555 93.8508 158.379 94.8828 159.387 96.9468C159.963 96.0348 160.767 95.2908 161.799 94.7148C162.831 94.1388 163.935 93.8508 165.111 93.8508C167.079 93.8508 168.675 94.5228 169.899 95.8668C171.147 97.1868 171.771 99.1668 171.771 101.807V112.031C171.771 112.271 171.687 112.487 171.519 112.679C171.351 112.847 171.135 112.931 170.871 112.931H166.695C166.431 112.931 166.203 112.847 166.011 112.679C165.843 112.511 165.759 112.295 165.759 112.031V102.059C165.759 100.859 165.507 99.9948 165.003 99.4668C164.523 98.9388 163.863 98.6748 163.023 98.6748C162.255 98.6748 161.619 98.9508 161.115 99.5028C160.611 100.031 160.359 100.883 160.359 102.059V112.031C160.359 112.271 160.275 112.487 160.107 112.679C159.939 112.847 159.723 112.931 159.459 112.931H155.283C155.019 112.931 154.803 112.847 154.635 112.679C154.467 112.511 154.383 112.295 154.383 112.031V102.059C154.383 100.883 154.119 100.031 153.591 99.5028C153.087 98.9508 152.439 98.6748 151.647 98.6748C150.879 98.6748 150.231 98.9508 149.703 99.5028C149.199 100.031 148.947 100.871 148.947 102.023V112.031C148.947 112.271 148.863 112.487 148.695 112.679C148.527 112.847 148.311 112.931 148.047 112.931H143.763Z" fill="#EC5863"/>
<path d="M120.269 137.041C119.235 137.041 118.425 136.788 117.838 136.282C117.259 135.776 116.969 135.013 116.969 133.994V129.506C116.969 129.425 116.995 129.359 117.046 129.308C117.105 129.256 117.171 129.231 117.244 129.231H118.663C118.744 129.231 118.81 129.256 118.861 129.308C118.92 129.359 118.949 129.425 118.949 129.506V133.983C118.949 134.459 119.059 134.819 119.279 135.061C119.507 135.295 119.833 135.413 120.258 135.413C120.676 135.413 120.999 135.292 121.226 135.05C121.454 134.808 121.567 134.452 121.567 133.983V129.506C121.567 129.425 121.593 129.359 121.644 129.308C121.703 129.256 121.769 129.231 121.842 129.231H123.272C123.353 129.231 123.419 129.256 123.47 129.308C123.522 129.359 123.547 129.425 123.547 129.506V133.994C123.547 135.013 123.254 135.776 122.667 136.282C122.088 136.788 121.289 137.041 120.269 137.041ZM131.947 137.041C131.25 137.041 130.653 136.938 130.154 136.733C129.655 136.527 129.278 136.26 129.021 135.93C128.772 135.592 128.64 135.226 128.625 134.83C128.625 134.771 128.647 134.72 128.691 134.676C128.742 134.624 128.801 134.599 128.867 134.599H130.253C130.341 134.599 130.411 134.617 130.462 134.654C130.521 134.683 130.579 134.731 130.638 134.797C130.733 134.987 130.887 135.145 131.1 135.27C131.313 135.394 131.595 135.457 131.947 135.457C132.365 135.457 132.684 135.391 132.904 135.259C133.124 135.127 133.234 134.947 133.234 134.72C133.234 134.558 133.175 134.426 133.058 134.324C132.948 134.221 132.772 134.129 132.53 134.049C132.288 133.968 131.929 133.876 131.452 133.774C130.572 133.59 129.912 133.323 129.472 132.971C129.039 132.611 128.823 132.102 128.823 131.442C128.823 130.994 128.948 130.595 129.197 130.243C129.446 129.891 129.802 129.616 130.264 129.418C130.726 129.22 131.265 129.121 131.881 129.121C132.519 129.121 133.073 129.231 133.542 129.451C134.011 129.671 134.367 129.949 134.609 130.287C134.858 130.617 134.99 130.943 135.005 131.266C135.005 131.332 134.983 131.387 134.939 131.431C134.895 131.475 134.84 131.497 134.774 131.497H133.322C133.234 131.497 133.161 131.482 133.102 131.453C133.051 131.423 133.003 131.376 132.959 131.31C132.915 131.141 132.794 130.998 132.596 130.881C132.405 130.763 132.167 130.705 131.881 130.705C131.551 130.705 131.298 130.763 131.122 130.881C130.946 130.998 130.858 131.17 130.858 131.398C130.858 131.552 130.906 131.68 131.001 131.783C131.104 131.885 131.265 131.981 131.485 132.069C131.712 132.149 132.035 132.234 132.453 132.322C133.135 132.446 133.678 132.604 134.081 132.795C134.492 132.978 134.792 133.22 134.983 133.521C135.174 133.814 135.269 134.184 135.269 134.632C135.269 135.123 135.126 135.552 134.84 135.919C134.561 136.278 134.169 136.557 133.663 136.755C133.164 136.945 132.592 137.041 131.947 137.041ZM140.715 136.931C140.642 136.931 140.576 136.905 140.517 136.854C140.466 136.795 140.44 136.729 140.44 136.656V129.506C140.44 129.425 140.466 129.359 140.517 129.308C140.576 129.256 140.642 129.231 140.715 129.231H145.852C145.933 129.231 145.999 129.256 146.05 129.308C146.101 129.359 146.127 129.425 146.127 129.506V130.54C146.127 130.613 146.101 130.679 146.05 130.738C145.999 130.789 145.933 130.815 145.852 130.815H142.343V132.3H145.61C145.691 132.3 145.757 132.329 145.808 132.388C145.859 132.439 145.885 132.505 145.885 132.586V133.543C145.885 133.616 145.859 133.682 145.808 133.741C145.757 133.792 145.691 133.818 145.61 133.818H142.343V135.347H145.94C146.021 135.347 146.087 135.372 146.138 135.424C146.189 135.475 146.215 135.541 146.215 135.622V136.656C146.215 136.729 146.189 136.795 146.138 136.854C146.087 136.905 146.021 136.931 145.94 136.931H140.715ZM151.81 136.931C151.737 136.931 151.671 136.905 151.612 136.854C151.561 136.795 151.535 136.729 151.535 136.656V129.506C151.535 129.425 151.561 129.359 151.612 129.308C151.671 129.256 151.737 129.231 151.81 129.231H154.802C155.763 129.231 156.511 129.451 157.046 129.891C157.589 130.323 157.86 130.939 157.86 131.739C157.86 132.252 157.739 132.688 157.497 133.048C157.255 133.407 156.922 133.682 156.496 133.873L158.003 136.579C158.025 136.623 158.036 136.663 158.036 136.7C158.036 136.758 158.011 136.813 157.959 136.865C157.915 136.909 157.864 136.931 157.805 136.931H156.342C156.13 136.931 155.979 136.832 155.891 136.634L154.637 134.214H153.515V136.656C153.515 136.736 153.486 136.802 153.427 136.854C153.376 136.905 153.31 136.931 153.229 136.931H151.81ZM154.78 132.652C155.118 132.652 155.374 132.571 155.55 132.41C155.726 132.241 155.814 132.01 155.814 131.717C155.814 131.423 155.726 131.192 155.55 131.024C155.382 130.848 155.125 130.76 154.78 130.76H153.515V132.652H154.78ZM166.082 137.041C165.385 137.041 164.787 136.938 164.289 136.733C163.79 136.527 163.412 136.26 163.156 135.93C162.906 135.592 162.774 135.226 162.76 134.83C162.76 134.771 162.782 134.72 162.826 134.676C162.877 134.624 162.936 134.599 163.002 134.599H164.388C164.476 134.599 164.545 134.617 164.597 134.654C164.655 134.683 164.714 134.731 164.773 134.797C164.868 134.987 165.022 135.145 165.235 135.27C165.447 135.394 165.73 135.457 166.082 135.457C166.5 135.457 166.819 135.391 167.039 135.259C167.259 135.127 167.369 134.947 167.369 134.72C167.369 134.558 167.31 134.426 167.193 134.324C167.083 134.221 166.907 134.129 166.665 134.049C166.423 133.968 166.063 133.876 165.587 133.774C164.707 133.59 164.047 133.323 163.607 132.971C163.174 132.611 162.958 132.102 162.958 131.442C162.958 130.994 163.082 130.595 163.332 130.243C163.581 129.891 163.937 129.616 164.399 129.418C164.861 129.22 165.4 129.121 166.016 129.121C166.654 129.121 167.207 129.231 167.677 129.451C168.146 129.671 168.502 129.949 168.744 130.287C168.993 130.617 169.125 130.943 169.14 131.266C169.14 131.332 169.118 131.387 169.074 131.431C169.03 131.475 168.975 131.497 168.909 131.497H167.457C167.369 131.497 167.295 131.482 167.237 131.453C167.185 131.423 167.138 131.376 167.094 131.31C167.05 131.141 166.929 130.998 166.731 130.881C166.54 130.763 166.302 130.705 166.016 130.705C165.686 130.705 165.433 130.763 165.257 130.881C165.081 130.998 164.993 131.17 164.993 131.398C164.993 131.552 165.04 131.68 165.136 131.783C165.238 131.885 165.4 131.981 165.62 132.069C165.847 132.149 166.17 132.234 166.588 132.322C167.27 132.446 167.812 132.604 168.216 132.795C168.626 132.978 168.927 133.22 169.118 133.521C169.308 133.814 169.404 134.184 169.404 134.632C169.404 135.123 169.261 135.552 168.975 135.919C168.696 136.278 168.304 136.557 167.798 136.755C167.299 136.945 166.727 137.041 166.082 137.041Z" fill="black"/>
<path d="M438.27 112.931C438.03 112.931 437.814 112.847 437.622 112.679C437.454 112.487 437.37 112.271 437.37 112.031V94.8948L432.438 98.6748C432.27 98.8188 432.09 98.8908 431.898 98.8908C431.634 98.8908 431.394 98.7468 431.178 98.4588L429.054 95.6868C428.934 95.4948 428.874 95.3148 428.874 95.1468C428.874 94.8108 429.018 94.5588 429.306 94.3908L437.586 87.9828C437.85 87.8148 438.138 87.7308 438.45 87.7308H442.95C443.214 87.7308 443.43 87.8148 443.598 87.9828C443.766 88.1508 443.85 88.3668 443.85 88.6308V112.031C443.85 112.271 443.766 112.487 443.598 112.679C443.43 112.847 443.214 112.931 442.95 112.931H438.27ZM463.436 113.291C460.124 113.267 457.616 112.391 455.912 110.663C454.208 108.911 453.284 106.619 453.14 103.787C453.092 102.491 453.068 101.339 453.068 100.331C453.068 99.2988 453.092 98.1108 453.14 96.7668C453.236 94.9668 453.668 93.3708 454.436 91.9788C455.228 90.5628 456.38 89.4468 457.892 88.6308C459.404 87.7908 461.252 87.3708 463.436 87.3708C466.676 87.3948 469.172 88.2708 470.924 89.9988C472.676 91.7268 473.624 93.9828 473.768 96.7668C473.816 98.1108 473.84 99.2988 473.84 100.331C473.84 101.339 473.816 102.491 473.768 103.787C473.6 106.619 472.664 108.911 470.96 110.663C469.256 112.391 466.748 113.267 463.436 113.291ZM463.436 108.071C464.612 108.071 465.488 107.687 466.064 106.919C466.664 106.127 466.988 105.023 467.036 103.607C467.084 102.911 467.108 101.795 467.108 100.259C467.108 98.7228 467.084 97.6308 467.036 96.9828C466.988 95.6148 466.676 94.5348 466.1 93.7428C465.524 92.9508 464.636 92.5428 463.436 92.5188C462.26 92.5428 461.372 92.9508 460.772 93.7428C460.196 94.5348 459.884 95.6148 459.836 96.9828C459.812 97.6308 459.8 98.7228 459.8 100.259C459.8 101.795 459.812 102.911 459.836 103.607C459.956 106.583 461.156 108.071 463.436 108.071ZM482.367 115.631C482.175 115.631 482.007 115.547 481.863 115.379C481.719 115.235 481.659 115.055 481.683 114.839L482.799 107.783C482.847 107.447 482.979 107.159 483.195 106.919C483.411 106.679 483.711 106.559 484.095 106.559H488.307C488.499 106.559 488.655 106.631 488.775 106.775C488.919 106.895 488.991 107.051 488.991 107.243C488.991 107.411 488.967 107.543 488.919 107.639L486.219 114.623C486.075 114.935 485.907 115.175 485.715 115.343C485.523 115.535 485.247 115.631 484.887 115.631H482.367ZM507.513 113.291C504.201 113.267 501.693 112.391 499.989 110.663C498.285 108.911 497.361 106.619 497.217 103.787C497.169 102.491 497.145 101.339 497.145 100.331C497.145 99.2988 497.169 98.1108 497.217 96.7668C497.313 94.9668 497.745 93.3708 498.513 91.9788C499.305 90.5628 500.457 89.4468 501.969 88.6308C503.481 87.7908 505.329 87.3708 507.513 87.3708C510.753 87.3948 513.249 88.2708 515.001 89.9988C516.753 91.7268 517.701 93.9828 517.845 96.7668C517.893 98.1108 517.917 99.2988 517.917 100.331C517.917 101.339 517.893 102.491 517.845 103.787C517.677 106.619 516.741 108.911 515.037 110.663C513.333 112.391 510.825 113.267 507.513 113.291ZM507.513 108.071C508.689 108.071 509.565 107.687 510.141 106.919C510.741 106.127 511.065 105.023 511.113 103.607C511.161 102.911 511.185 101.795 511.185 100.259C511.185 98.7228 511.161 97.6308 511.113 96.9828C511.065 95.6148 510.753 94.5348 510.177 93.7428C509.601 92.9508 508.713 92.5428 507.513 92.5188C506.337 92.5428 505.449 92.9508 504.849 93.7428C504.273 94.5348 503.961 95.6148 503.913 96.9828C503.889 97.6308 503.877 98.7228 503.877 100.259C503.877 101.795 503.889 102.911 503.913 103.607C504.033 106.583 505.233 108.071 507.513 108.071ZM537.021 113.291C533.709 113.267 531.201 112.391 529.497 110.663C527.793 108.911 526.869 106.619 526.725 103.787C526.677 102.491 526.653 101.339 526.653 100.331C526.653 99.2988 526.677 98.1108 526.725 96.7668C526.821 94.9668 527.253 93.3708 528.021 91.9788C528.813 90.5628 529.965 89.4468 531.477 88.6308C532.989 87.7908 534.837 87.3708 537.021 87.3708C540.261 87.3948 542.757 88.2708 544.509 89.9988C546.261 91.7268 547.209 93.9828 547.353 96.7668C547.401 98.1108 547.425 99.2988 547.425 100.331C547.425 101.339 547.401 102.491 547.353 103.787C547.185 106.619 546.249 108.911 544.545 110.663C542.841 112.391 540.333 113.267 537.021 113.291ZM537.021 108.071C538.197 108.071 539.073 107.687 539.649 106.919C540.249 106.127 540.573 105.023 540.621 103.607C540.669 102.911 540.693 101.795 540.693 100.259C540.693 98.7228 540.669 97.6308 540.621 96.9828C540.573 95.6148 540.261 94.5348 539.685 93.7428C539.109 92.9508 538.221 92.5428 537.021 92.5188C535.845 92.5428 534.957 92.9508 534.357 93.7428C533.781 94.5348 533.469 95.6148 533.421 96.9828C533.397 97.6308 533.385 98.7228 533.385 100.259C533.385 101.795 533.397 102.911 533.421 103.607C533.541 106.583 534.741 108.071 537.021 108.071ZM566.53 113.291C563.218 113.267 560.71 112.391 559.006 110.663C557.302 108.911 556.378 106.619 556.234 103.787C556.186 102.491 556.162 101.339 556.162 100.331C556.162 99.2988 556.186 98.1108 556.234 96.7668C556.33 94.9668 556.762 93.3708 557.53 91.9788C558.322 90.5628 559.474 89.4468 560.986 88.6308C562.498 87.7908 564.346 87.3708 566.53 87.3708C569.77 87.3948 572.266 88.2708 574.018 89.9988C575.77 91.7268 576.718 93.9828 576.862 96.7668C576.91 98.1108 576.934 99.2988 576.934 100.331C576.934 101.339 576.91 102.491 576.862 103.787C576.694 106.619 575.758 108.911 574.054 110.663C572.35 112.391 569.842 113.267 566.53 113.291ZM566.53 108.071C567.706 108.071 568.582 107.687 569.158 106.919C569.758 106.127 570.082 105.023 570.13 103.607C570.178 102.911 570.202 101.795 570.202 100.259C570.202 98.7228 570.178 97.6308 570.13 96.9828C570.082 95.6148 569.77 94.5348 569.194 93.7428C568.618 92.9508 567.73 92.5428 566.53 92.5188C565.354 92.5428 564.466 92.9508 563.866 93.7428C563.29 94.5348 562.978 95.6148 562.93 96.9828C562.906 97.6308 562.894 98.7228 562.894 100.259C562.894 101.795 562.906 102.911 562.93 103.607C563.05 106.583 564.25 108.071 566.53 108.071ZM593.303 111.743C593.063 111.743 592.847 111.659 592.655 111.491C592.487 111.299 592.403 111.083 592.403 110.843V104.255H585.995C585.731 104.255 585.503 104.171 585.311 104.003C585.143 103.835 585.059 103.619 585.059 103.355V100.727C585.059 100.463 585.143 100.247 585.311 100.079C585.503 99.8868 585.731 99.7908 585.995 99.7908H592.403V93.4188C592.403 93.1548 592.487 92.9388 592.655 92.7708C592.847 92.6028 593.063 92.5188 593.303 92.5188H596.255C596.519 92.5188 596.735 92.6028 596.903 92.7708C597.071 92.9388 597.155 93.1548 597.155 93.4188V99.7908H603.527C603.791 99.7908 604.007 99.8868 604.175 100.079C604.343 100.247 604.427 100.463 604.427 100.727V103.355C604.427 103.619 604.343 103.835 604.175 104.003C604.007 104.171 603.791 104.255 603.527 104.255H597.155V110.843C597.155 111.083 597.071 111.299 596.903 111.491C596.735 111.659 596.519 111.743 596.255 111.743H593.303Z" fill="#EC5863"/>
<path d="M438.288 136.931C438.215 136.931 438.149 136.905 438.09 136.854C438.039 136.795 438.013 136.729 438.013 136.656V129.506C438.013 129.425 438.039 129.359 438.09 129.308C438.149 129.256 438.215 129.231 438.288 129.231H439.476C439.652 129.231 439.78 129.311 439.861 129.473L441.797 132.938L443.733 129.473C443.814 129.311 443.942 129.231 444.118 129.231H445.295C445.376 129.231 445.442 129.256 445.493 129.308C445.552 129.359 445.581 129.425 445.581 129.506V136.656C445.581 136.736 445.552 136.802 445.493 136.854C445.442 136.905 445.376 136.931 445.295 136.931H443.986C443.905 136.931 443.836 136.905 443.777 136.854C443.726 136.802 443.7 136.736 443.7 136.656V132.531L442.468 134.83C442.373 134.998 442.244 135.083 442.083 135.083H441.511C441.416 135.083 441.339 135.061 441.28 135.017C441.221 134.973 441.17 134.91 441.126 134.83L439.883 132.531V136.656C439.883 136.729 439.857 136.795 439.806 136.854C439.755 136.905 439.689 136.931 439.608 136.931H438.288ZM451.467 136.931C451.394 136.931 451.328 136.905 451.269 136.854C451.218 136.795 451.192 136.729 451.192 136.656V129.506C451.192 129.425 451.218 129.359 451.269 129.308C451.328 129.256 451.394 129.231 451.467 129.231H456.604C456.685 129.231 456.751 129.256 456.802 129.308C456.854 129.359 456.879 129.425 456.879 129.506V130.54C456.879 130.613 456.854 130.679 456.802 130.738C456.751 130.789 456.685 130.815 456.604 130.815H453.095V132.3H456.362C456.443 132.3 456.509 132.329 456.56 132.388C456.612 132.439 456.637 132.505 456.637 132.586V133.543C456.637 133.616 456.612 133.682 456.56 133.741C456.509 133.792 456.443 133.818 456.362 133.818H453.095V135.347H456.692C456.773 135.347 456.839 135.372 456.89 135.424C456.942 135.475 456.967 135.541 456.967 135.622V136.656C456.967 136.729 456.942 136.795 456.89 136.854C456.839 136.905 456.773 136.931 456.692 136.931H451.467ZM462.563 136.931C462.489 136.931 462.423 136.905 462.365 136.854C462.313 136.795 462.288 136.729 462.288 136.656V129.506C462.288 129.425 462.313 129.359 462.365 129.308C462.423 129.256 462.489 129.231 462.563 129.231H465.423C466.501 129.231 467.337 129.487 467.931 130.001C468.525 130.514 468.836 131.258 468.866 132.234C468.873 132.446 468.877 132.729 468.877 133.081C468.877 133.433 468.873 133.711 468.866 133.917C468.829 134.936 468.525 135.695 467.953 136.194C467.388 136.685 466.563 136.931 465.478 136.931H462.563ZM465.423 135.347C465.907 135.347 466.262 135.233 466.49 135.006C466.717 134.771 466.838 134.401 466.853 133.895C466.867 133.682 466.875 133.407 466.875 133.07C466.875 132.732 466.867 132.461 466.853 132.256C466.838 131.764 466.706 131.401 466.457 131.167C466.215 130.932 465.852 130.815 465.368 130.815H464.268V135.347H465.423ZM474.507 136.931C474.433 136.931 474.367 136.905 474.309 136.854C474.257 136.795 474.232 136.729 474.232 136.656V129.506C474.232 129.425 474.257 129.359 474.309 129.308C474.367 129.256 474.433 129.231 474.507 129.231H475.981C476.061 129.231 476.127 129.256 476.179 129.308C476.237 129.359 476.267 129.425 476.267 129.506V136.656C476.267 136.736 476.237 136.802 476.179 136.854C476.127 136.905 476.061 136.931 475.981 136.931H474.507ZM485.025 137.041C483.976 137.041 483.155 136.788 482.561 136.282C481.974 135.768 481.663 135.028 481.626 134.06C481.619 133.862 481.615 133.539 481.615 133.092C481.615 132.637 481.619 132.307 481.626 132.102C481.663 131.148 481.982 130.415 482.583 129.902C483.184 129.381 483.998 129.121 485.025 129.121C485.67 129.121 486.25 129.231 486.763 129.451C487.276 129.663 487.68 129.971 487.973 130.375C488.274 130.771 488.428 131.236 488.435 131.772V131.794C488.435 131.852 488.409 131.904 488.358 131.948C488.314 131.984 488.263 132.003 488.204 132.003H486.719C486.624 132.003 486.55 131.984 486.499 131.948C486.448 131.904 486.404 131.827 486.367 131.717C486.264 131.343 486.103 131.082 485.883 130.936C485.663 130.782 485.373 130.705 485.014 130.705C484.149 130.705 483.701 131.189 483.672 132.157C483.665 132.355 483.661 132.659 483.661 133.07C483.661 133.48 483.665 133.792 483.672 134.005C483.701 134.973 484.149 135.457 485.014 135.457C485.373 135.457 485.667 135.38 485.894 135.226C486.121 135.064 486.279 134.804 486.367 134.445C486.396 134.335 486.437 134.261 486.488 134.225C486.539 134.181 486.616 134.159 486.719 134.159H488.204C488.27 134.159 488.325 134.181 488.369 134.225C488.42 134.269 488.442 134.324 488.435 134.39C488.428 134.925 488.274 135.394 487.973 135.798C487.68 136.194 487.276 136.502 486.763 136.722C486.25 136.934 485.67 137.041 485.025 137.041ZM493.125 136.931C493.066 136.931 493.011 136.909 492.96 136.865C492.916 136.813 492.894 136.758 492.894 136.7C492.894 136.656 492.898 136.623 492.905 136.601L495.49 129.539C495.512 129.451 495.56 129.377 495.633 129.319C495.706 129.26 495.802 129.231 495.919 129.231H497.547C497.664 129.231 497.76 129.26 497.833 129.319C497.906 129.377 497.954 129.451 497.976 129.539L500.55 136.601L500.572 136.7C500.572 136.758 500.546 136.813 500.495 136.865C500.451 136.909 500.396 136.931 500.33 136.931H498.977C498.801 136.931 498.684 136.854 498.625 136.7L498.196 135.578H495.259L494.841 136.7C494.782 136.854 494.661 136.931 494.478 136.931H493.125ZM497.756 133.994L496.733 131.09L495.71 133.994H497.756ZM505.784 136.931C505.711 136.931 505.645 136.905 505.586 136.854C505.535 136.795 505.509 136.729 505.509 136.656V129.506C505.509 129.425 505.535 129.359 505.586 129.308C505.645 129.256 505.711 129.231 505.784 129.231H507.236C507.317 129.231 507.383 129.256 507.434 129.308C507.485 129.359 507.511 129.425 507.511 129.506V135.27H510.844C510.925 135.27 510.991 135.299 511.042 135.358C511.093 135.409 511.119 135.475 511.119 135.556V136.656C511.119 136.729 511.093 136.795 511.042 136.854C510.991 136.905 510.925 136.931 510.844 136.931H505.784ZM522.572 136.931C522.498 136.931 522.432 136.905 522.374 136.854C522.322 136.795 522.297 136.729 522.297 136.656V129.506C522.297 129.425 522.322 129.359 522.374 129.308C522.432 129.256 522.498 129.231 522.572 129.231H527.709C527.789 129.231 527.855 129.256 527.907 129.308C527.958 129.359 527.984 129.425 527.984 129.506V130.54C527.984 130.613 527.958 130.679 527.907 130.738C527.855 130.789 527.789 130.815 527.709 130.815H524.2V132.3H527.467C527.547 132.3 527.613 132.329 527.665 132.388C527.716 132.439 527.742 132.505 527.742 132.586V133.543C527.742 133.616 527.716 133.682 527.665 133.741C527.613 133.792 527.547 133.818 527.467 133.818H524.2V135.347H527.797C527.877 135.347 527.943 135.372 527.995 135.424C528.046 135.475 528.072 135.541 528.072 135.622V136.656C528.072 136.729 528.046 136.795 527.995 136.854C527.943 136.905 527.877 136.931 527.797 136.931H522.572ZM532.985 136.931C532.919 136.931 532.86 136.909 532.809 136.865C532.765 136.813 532.743 136.758 532.743 136.7C532.743 136.648 532.758 136.604 532.787 136.568L535.185 133.004L532.963 129.594C532.941 129.55 532.93 129.506 532.93 129.462C532.93 129.403 532.952 129.352 532.996 129.308C533.04 129.256 533.095 129.231 533.161 129.231H534.756C534.844 129.231 534.917 129.253 534.976 129.297C535.035 129.341 535.09 129.396 535.141 129.462L536.45 131.453L537.781 129.462C537.876 129.308 538.005 129.231 538.166 129.231H539.684C539.743 129.231 539.794 129.256 539.838 129.308C539.889 129.352 539.915 129.403 539.915 129.462C539.915 129.513 539.9 129.557 539.871 129.594L537.638 132.993L540.058 136.568C540.08 136.597 540.091 136.641 540.091 136.7C540.091 136.758 540.069 136.813 540.025 136.865C539.981 136.909 539.926 136.931 539.86 136.931H538.221C538.067 136.931 537.939 136.857 537.836 136.711L536.384 134.599L534.943 136.711C534.862 136.857 534.738 136.931 534.569 136.931H532.985ZM545.332 136.931C545.258 136.931 545.192 136.905 545.134 136.854C545.082 136.795 545.057 136.729 545.057 136.656V129.506C545.057 129.425 545.082 129.359 545.134 129.308C545.192 129.256 545.258 129.231 545.332 129.231H548.412C549.35 129.231 550.087 129.447 550.623 129.88C551.165 130.312 551.437 130.943 551.437 131.772C551.437 132.593 551.169 133.213 550.634 133.631C550.098 134.041 549.358 134.247 548.412 134.247H547.103V136.656C547.103 136.736 547.073 136.802 547.015 136.854C546.963 136.905 546.897 136.931 546.817 136.931H545.332ZM548.357 132.729C548.679 132.729 548.932 132.648 549.116 132.487C549.299 132.318 549.391 132.072 549.391 131.75C549.391 131.449 549.303 131.211 549.127 131.035C548.958 130.851 548.701 130.76 548.357 130.76H547.07V132.729H548.357ZM556.835 136.931C556.762 136.931 556.696 136.905 556.637 136.854C556.586 136.795 556.56 136.729 556.56 136.656V129.506C556.56 129.425 556.586 129.359 556.637 129.308C556.696 129.256 556.762 129.231 556.835 129.231H561.972C562.053 129.231 562.119 129.256 562.17 129.308C562.222 129.359 562.247 129.425 562.247 129.506V130.54C562.247 130.613 562.222 130.679 562.17 130.738C562.119 130.789 562.053 130.815 561.972 130.815H558.463V132.3H561.73C561.811 132.3 561.877 132.329 561.928 132.388C561.98 132.439 562.005 132.505 562.005 132.586V133.543C562.005 133.616 561.98 133.682 561.928 133.741C561.877 133.792 561.811 133.818 561.73 133.818H558.463V135.347H562.06C562.141 135.347 562.207 135.372 562.258 135.424C562.31 135.475 562.335 135.541 562.335 135.622V136.656C562.335 136.729 562.31 136.795 562.258 136.854C562.207 136.905 562.141 136.931 562.06 136.931H556.835ZM567.931 136.931C567.857 136.931 567.791 136.905 567.733 136.854C567.681 136.795 567.656 136.729 567.656 136.656V129.506C567.656 129.425 567.681 129.359 567.733 129.308C567.791 129.256 567.857 129.231 567.931 129.231H570.923C571.883 129.231 572.631 129.451 573.167 129.891C573.709 130.323 573.981 130.939 573.981 131.739C573.981 132.252 573.86 132.688 573.618 133.048C573.376 133.407 573.042 133.682 572.617 133.873L574.124 136.579C574.146 136.623 574.157 136.663 574.157 136.7C574.157 136.758 574.131 136.813 574.08 136.865C574.036 136.909 573.984 136.931 573.926 136.931H572.463C572.25 136.931 572.1 136.832 572.012 136.634L570.758 134.214H569.636V136.656C569.636 136.736 569.606 136.802 569.548 136.854C569.496 136.905 569.43 136.931 569.35 136.931H567.931ZM570.901 132.652C571.238 132.652 571.495 132.571 571.671 132.41C571.847 132.241 571.935 132.01 571.935 131.717C571.935 131.423 571.847 131.192 571.671 131.024C571.502 130.848 571.245 130.76 570.901 130.76H569.636V132.652H570.901ZM581.225 136.931C581.152 136.931 581.086 136.905 581.027 136.854C580.976 136.795 580.95 136.729 580.95 136.656V130.958H578.992C578.919 130.958 578.853 130.932 578.794 130.881C578.743 130.822 578.717 130.756 578.717 130.683V129.506C578.717 129.425 578.743 129.359 578.794 129.308C578.853 129.256 578.919 129.231 578.992 129.231H584.91C584.991 129.231 585.057 129.256 585.108 129.308C585.159 129.359 585.185 129.425 585.185 129.506V130.683C585.185 130.763 585.159 130.829 585.108 130.881C585.057 130.932 584.991 130.958 584.91 130.958H582.952V136.656C582.952 136.729 582.926 136.795 582.875 136.854C582.824 136.905 582.758 136.931 582.677 136.931H581.225ZM593.104 137.041C592.407 137.041 591.81 136.938 591.311 136.733C590.812 136.527 590.435 136.26 590.178 135.93C589.929 135.592 589.797 135.226 589.782 134.83C589.782 134.771 589.804 134.72 589.848 134.676C589.899 134.624 589.958 134.599 590.024 134.599H591.41C591.498 134.599 591.568 134.617 591.619 134.654C591.678 134.683 591.736 134.731 591.795 134.797C591.89 134.987 592.044 135.145 592.257 135.27C592.47 135.394 592.752 135.457 593.104 135.457C593.522 135.457 593.841 135.391 594.061 135.259C594.281 135.127 594.391 134.947 594.391 134.72C594.391 134.558 594.332 134.426 594.215 134.324C594.105 134.221 593.929 134.129 593.687 134.049C593.445 133.968 593.086 133.876 592.609 133.774C591.729 133.59 591.069 133.323 590.629 132.971C590.196 132.611 589.98 132.102 589.98 131.442C589.98 130.994 590.105 130.595 590.354 130.243C590.603 129.891 590.959 129.616 591.421 129.418C591.883 129.22 592.422 129.121 593.038 129.121C593.676 129.121 594.23 129.231 594.699 129.451C595.168 129.671 595.524 129.949 595.766 130.287C596.015 130.617 596.147 130.943 596.162 131.266C596.162 131.332 596.14 131.387 596.096 131.431C596.052 131.475 595.997 131.497 595.931 131.497H594.479C594.391 131.497 594.318 131.482 594.259 131.453C594.208 131.423 594.16 131.376 594.116 131.31C594.072 131.141 593.951 130.998 593.753 130.881C593.562 130.763 593.324 130.705 593.038 130.705C592.708 130.705 592.455 130.763 592.279 130.881C592.103 130.998 592.015 131.17 592.015 131.398C592.015 131.552 592.063 131.68 592.158 131.783C592.261 131.885 592.422 131.981 592.642 132.069C592.869 132.149 593.192 132.234 593.61 132.322C594.292 132.446 594.835 132.604 595.238 132.795C595.649 132.978 595.949 133.22 596.14 133.521C596.331 133.814 596.426 134.184 596.426 134.632C596.426 135.123 596.283 135.552 595.997 135.919C595.718 136.278 595.326 136.557 594.82 136.755C594.321 136.945 593.749 137.041 593.104 137.041Z" fill="black"/>
<defs>
<filter id="filter0_d_65_22" x="7" y="28.9308" width="702" height="165" filterUnits="userSpaceOnUse" color-interpolation-filters="sRGB">
<feFlood flood-opacity="0" result="BackgroundImageFix"/>
<feColorMatrix in="SourceAlpha" type="matrix" values="0 0 0 0 0 0 0 0 0 0 0 0 0 0 0 0 0 0 127 0" result="hardAlpha"/>
<feOffset dy="2"/>
<feGaussianBlur stdDeviation="12"/>
<feColorMatrix type="matrix" values="0 0 0 0 0.345098 0 0 0 0 0.494118 0 0 0 0 0.92549 0 0 0 0.15 0"/>
<feBlend mode="normal" in2="BackgroundImageFix" result="effect1_dropShadow_65_22"/>
<feBlend mode="normal" in="SourceGraphic" in2="effect1_dropShadow_65_22" result="shape"/>
</filter>
</defs>
</svg>
